# xmcd
#
# Track frame offsets:
#	150
#	10590
#	24120
#	34230
#	48907
#	58825
#	70827
#	82037
#	98342
#	109872
#	123962
#	134720
#
# Disc length: 1913 seconds
#
# Revision: 0
# Processed by: cddbd v1.4PL0 Copyright (c) Steve Scherf et al.
# Submitted via: EasyCDDAExtractor 4.6.9.1
#
DISCID=9507770c
DTITLE=Larry Sparks - The Coldest Part Of Winter
DYEAR=2003
DGENRE=Bluegrass
TTITLE0=Leavin' Me
TTITLE1=You Ain't Lived
TTITLE2=This Old Road
TTITLE3=Winter In Miami
TTITLE4=Parkway Blues
TTITLE5=Let's Turn Back The Clock
TTITLE6=Kentucky Moon
TTITLE7=He Walked All The Way Home
TTITLE8=Our Old Home
TTITLE9=Shenandoah Moon
TTITLE10=Soldier's Joy
TTITLE11=Lord, Show Me The Way
EXTD=
EXTT0=
EXTT1=
EXTT2=
EXTT3=
EXTT4=
EXTT5=
EXTT6=
EXTT7=
EXTT8=
EXTT9=
EXTT10=
EXTT11=
PLAYORDER=
